<?xml version="1.0" standalone="no"?>
<!DOCTYPE svg PUBLIC "-//W3C//DTD SVG 20010904//EN"
 "http://www.w3.org/TR/2001/REC-SVG-20010904/DTD/svg10.dtd">
<svg version="1.0" xmlns="http://www.w3.org/2000/svg"
 width="1280.000000pt" height="1280.000000pt" viewBox="0 0 1280.000000 1280.000000"
 preserveAspectRatio="xMidYMid meet">

<g transform="translate(0.000000,1280.000000) scale(0.100000,-0.100000)"
fill="#000000" stroke="none">
<path d="M9846 7390 c-16 -10 -56 -21 -90 -25 -122 -13 -240 -45 -326 -87
-168 -83 -287 -237 -336 -438 -24 -96 -27 -435 -5 -545 68 -340 245 -495 566
-495 183 0 316 50 425 159 109 109 163 259 163 446 1 184 -44 307 -148 411
-70 71 -140 110 -234 130 -224 47 -437 -30 -541 -196 l-22 -35 6 45 c10 65 57
159 104 206 78 77 198 124 357 139 93 9 187 30 234 55 83 42 140 127 141 208
l0 42 -132 -1 c-111 0 -138 -3 -162 -19z m-107 -661 c144 -31 219 -190 190
-403 -17 -129 -66 -207 -154 -247 -55 -25 -175 -25 -230 0 -190 86 -224 474
-52 605 34 26 120 54 169 55 15 1 50 -4 77 -10z"/>
<path d="M2616 7392 c-3 -5 -4 -357 -3 -783 l2 -774 160 0 160 0 3 648 2 647
305 0 305 0 2 -647 3 -648 160 0 160 0 0 780 0 780 -627 3 c-345 1 -629 -2
-632 -6z"/>
<path d="M1785 7021 c-221 -27 -377 -169 -435 -397 -15 -58 -20 -110 -20 -214
0 -217 41 -346 147 -460 98 -106 243 -157 423 -147 143 8 243 50 338 141 69
66 142 216 142 293 l0 23 -155 0 c-143 0 -155 -1 -155 -18 0 -10 -12 -42 -26
-71 -37 -74 -96 -111 -176 -111 -66 0 -106 16 -156 63 -33 32 -72 119 -72 162
l0 25 140 0 140 0 0 100 0 100 -140 0 c-159 0 -152 -5 -124 89 63 212 351 231
403 25 l11 -44 155 0 c179 0 170 -8 137 111 -55 198 -215 315 -452 332 -36 3
-92 2 -125 -2z"/>
<path d="M4594 7021 c-239 -38 -416 -207 -470 -449 -24 -110 -15 -291 20 -392
79 -229 264 -365 516 -377 197 -9 334 38 454 160 123 122 170 249 170 452 0
136 -15 208 -66 313 -63 130 -216 250 -358 281 -67 15 -208 21 -266 12z m188
-261 c101 -28 169 -125 187 -265 20 -163 -16 -304 -95 -374 -51 -45 -100 -61
-183 -61 -73 0 -123 19 -169 63 -142 136 -134 481 13 593 67 50 162 67 247 44z"/>
<path d="M7135 7020 c-83 -15 -154 -58 -210 -129 l-50 -62 -3 80 -3 81 -139 0
-140 0 0 -800 0 -800 150 0 150 0 0 291 0 291 50 -55 c33 -37 69 -63 112 -83
56 -25 75 -28 163 -28 167 -1 274 49 367 171 85 113 121 249 122 453 0 197
-35 317 -123 428 -98 123 -282 190 -446 162z m73 -275 c65 -19 115 -68 150
-144 34 -75 43 -247 18 -336 -41 -138 -120 -205 -243 -205 -73 0 -129 25 -174
78 -58 68 -74 127 -74 277 0 127 1 132 33 197 37 75 83 116 152 134 61 17 78
17 138 -1z"/>
<path d="M8325 7024 c-145 -19 -248 -68 -330 -156 -96 -103 -142 -227 -152
-408 -15 -281 90 -506 279 -599 164 -81 386 -81 555 0 117 56 223 181 240 283
l6 36 -154 0 -154 0 -23 -40 c-13 -23 -41 -50 -69 -67 -40 -23 -58 -27 -118
-27 -103 1 -185 46 -225 124 -14 28 -40 122 -40 145 0 3 180 5 401 5 l401 0
-7 83 c-20 256 -69 393 -177 495 -53 51 -117 87 -189 105 -58 16 -196 27 -244
21z m146 -255 c83 -28 149 -119 149 -206 l0 -43 -232 2 -233 3 3 40 c8 84 57
160 124 194 48 24 134 28 189 10z"/>
<path d="M10839 7019 c-86 -7 -130 -20 -209 -59 -106 -54 -193 -174 -207 -288
l-6 -53 148 3 148 3 14 47 c21 74 64 101 168 106 134 7 193 -25 202 -112 5
-40 2 -48 -23 -74 -26 -25 -42 -30 -154 -46 -213 -31 -286 -45 -334 -66 -68
-29 -139 -100 -172 -173 -24 -54 -28 -74 -27 -152 0 -185 87 -303 252 -341
155 -37 305 2 418 109 53 49 53 50 53 22 0 -15 5 -45 12 -66 l11 -39 169 0
c156 0 168 1 168 18 0 10 -11 29 -25 42 -14 13 -29 40 -35 59 -6 21 -10 191
-10 401 0 381 -5 436 -46 498 -79 121 -272 181 -515 161z m252 -817 c-6 -20
-23 -57 -38 -80 -55 -85 -215 -133 -299 -89 -89 46 -96 182 -14 249 28 22 65
35 168 58 73 16 145 36 160 44 l27 14 3 -79 c2 -43 -2 -96 -7 -117z"/>
<path d="M5410 6870 l0 -120 173 -2 172 -3 3 -458 2 -458 148 3 147 3 3 458 2
457 175 0 175 0 0 120 0 120 -500 0 -500 0 0 -120z"/>
</g>
</svg>
